<mxfile host="app.diagrams.net" modified="2024-05-02T06:15:49.694Z" agent="Mozilla/5.0 (Windows NT 10.0; Win64; x64; rv:125.0) Gecko/20100101 Firefox/125.0" etag="AN62MiWag2B_e_SnYg8B" version="24.3.0" type="device">
  <diagram name="Page-1" id="j4QWoho8t2Zl5OVrErmx">
    <mxGraphModel dx="1050" dy="566" grid="1" gridSize="10" guides="1" tooltips="1" connect="1" arrows="1" fold="1" page="1" pageScale="1" pageWidth="1654" pageHeight="1169" math="0" shadow="0">
      <root>
        <mxCell id="0" />
        <mxCell id="1" parent="0" />
        <mxCell id="j3psgyYTAqwpigC-JTr--1" value="" style="rounded=0;whiteSpace=wrap;html=1;fillColor=#f5f5f5;fontColor=#333333;strokeColor=#666666;" vertex="1" parent="1">
          <mxGeometry x="250" y="40" width="570" height="540" as="geometry" />
        </mxCell>
        <mxCell id="j3psgyYTAqwpigC-JTr--2" value="user" style="shape=umlActor;verticalLabelPosition=bottom;verticalAlign=top;html=1;outlineConnect=0;fillColor=#ffe6cc;strokeColor=#d79b00;" vertex="1" parent="1">
          <mxGeometry x="290" y="240" width="30" height="60" as="geometry" />
        </mxCell>
        <mxCell id="j3psgyYTAqwpigC-JTr--3" value="se connecter" style="ellipse;whiteSpace=wrap;html=1;fillColor=#f8cecc;strokeColor=#b85450;" vertex="1" parent="1">
          <mxGeometry x="380" y="60" width="120" height="80" as="geometry" />
        </mxCell>
        <mxCell id="j3psgyYTAqwpigC-JTr--4" value="afficher tout les cinema" style="ellipse;whiteSpace=wrap;html=1;fillColor=#d5e8d4;strokeColor=#82b366;" vertex="1" parent="1">
          <mxGeometry x="380" y="190" width="120" height="80" as="geometry" />
        </mxCell>
        <mxCell id="j3psgyYTAqwpigC-JTr--5" value="afficher les cinema par villes" style="ellipse;whiteSpace=wrap;html=1;fillColor=#fff2cc;strokeColor=#d6b656;" vertex="1" parent="1">
          <mxGeometry x="380" y="330" width="120" height="80" as="geometry" />
        </mxCell>
        <mxCell id="j3psgyYTAqwpigC-JTr--6" value="afficher les films par cinema" style="ellipse;whiteSpace=wrap;html=1;fillColor=#e1d5e7;strokeColor=#9673a6;" vertex="1" parent="1">
          <mxGeometry x="620" y="330" width="120" height="80" as="geometry" />
        </mxCell>
        <mxCell id="j3psgyYTAqwpigC-JTr--7" value="afficher les cinema par name recherche" style="ellipse;whiteSpace=wrap;html=1;fillColor=#dae8fc;strokeColor=#6c8ebf;" vertex="1" parent="1">
          <mxGeometry x="380" y="460" width="120" height="80" as="geometry" />
        </mxCell>
        <mxCell id="j3psgyYTAqwpigC-JTr--8" value="" style="endArrow=classic;html=1;rounded=0;entryX=0;entryY=0.5;entryDx=0;entryDy=0;exitX=0.5;exitY=0.5;exitDx=0;exitDy=0;exitPerimeter=0;" edge="1" parent="1" source="j3psgyYTAqwpigC-JTr--2" target="j3psgyYTAqwpigC-JTr--4">
          <mxGeometry width="50" height="50" relative="1" as="geometry">
            <mxPoint x="510" y="320" as="sourcePoint" />
            <mxPoint x="560" y="270" as="targetPoint" />
          </mxGeometry>
        </mxCell>
        <mxCell id="j3psgyYTAqwpigC-JTr--9" value="" style="endArrow=classic;html=1;rounded=0;entryX=0.025;entryY=0.588;entryDx=0;entryDy=0;exitX=0.75;exitY=0.1;exitDx=0;exitDy=0;exitPerimeter=0;entryPerimeter=0;" edge="1" parent="1" source="j3psgyYTAqwpigC-JTr--2" target="j3psgyYTAqwpigC-JTr--3">
          <mxGeometry width="50" height="50" relative="1" as="geometry">
            <mxPoint x="315" y="280" as="sourcePoint" />
            <mxPoint x="390" y="240" as="targetPoint" />
          </mxGeometry>
        </mxCell>
        <mxCell id="j3psgyYTAqwpigC-JTr--10" value="" style="endArrow=classic;html=1;rounded=0;entryX=0;entryY=0.5;entryDx=0;entryDy=0;exitX=0.5;exitY=0.5;exitDx=0;exitDy=0;exitPerimeter=0;" edge="1" parent="1" target="j3psgyYTAqwpigC-JTr--5">
          <mxGeometry width="50" height="50" relative="1" as="geometry">
            <mxPoint x="315" y="280" as="sourcePoint" />
            <mxPoint x="390" y="240" as="targetPoint" />
          </mxGeometry>
        </mxCell>
        <mxCell id="j3psgyYTAqwpigC-JTr--11" value="" style="endArrow=classic;html=1;rounded=0;entryX=0.083;entryY=0.375;entryDx=0;entryDy=0;entryPerimeter=0;" edge="1" parent="1" source="j3psgyYTAqwpigC-JTr--2" target="j3psgyYTAqwpigC-JTr--7">
          <mxGeometry width="50" height="50" relative="1" as="geometry">
            <mxPoint x="310" y="340" as="sourcePoint" />
            <mxPoint x="375" y="430" as="targetPoint" />
          </mxGeometry>
        </mxCell>
        <mxCell id="j3psgyYTAqwpigC-JTr--12" value="" style="endArrow=classic;html=1;rounded=0;entryX=0;entryY=0.5;entryDx=0;entryDy=0;exitX=1.025;exitY=0.6;exitDx=0;exitDy=0;exitPerimeter=0;" edge="1" parent="1" source="j3psgyYTAqwpigC-JTr--4" target="j3psgyYTAqwpigC-JTr--6">
          <mxGeometry width="50" height="50" relative="1" as="geometry">
            <mxPoint x="315" y="280" as="sourcePoint" />
            <mxPoint x="390" y="240" as="targetPoint" />
          </mxGeometry>
        </mxCell>
        <mxCell id="j3psgyYTAqwpigC-JTr--13" value="" style="endArrow=classic;html=1;rounded=0;entryX=0;entryY=0.5;entryDx=0;entryDy=0;exitX=1;exitY=0.5;exitDx=0;exitDy=0;" edge="1" parent="1" source="j3psgyYTAqwpigC-JTr--5" target="j3psgyYTAqwpigC-JTr--6">
          <mxGeometry width="50" height="50" relative="1" as="geometry">
            <mxPoint x="513" y="248" as="sourcePoint" />
            <mxPoint x="630" y="380" as="targetPoint" />
          </mxGeometry>
        </mxCell>
        <mxCell id="j3psgyYTAqwpigC-JTr--14" value="" style="endArrow=classic;html=1;rounded=0;exitX=1;exitY=0.413;exitDx=0;exitDy=0;exitPerimeter=0;" edge="1" parent="1" source="j3psgyYTAqwpigC-JTr--7">
          <mxGeometry width="50" height="50" relative="1" as="geometry">
            <mxPoint x="510" y="380" as="sourcePoint" />
            <mxPoint x="620" y="370" as="targetPoint" />
          </mxGeometry>
        </mxCell>
      </root>
    </mxGraphModel>
  </diagram>
</mxfile>
